{"title":"Balls.To.The.Wall.2011.BRRip.XviD.AC3-PRESTiGE","uid":7002305,"size":2004444704,"categoryP":"video","categoryS":"movies","magnet":"?xt=urn:btih:2d3d229581290549f01d5f40dc5a7b29d62bbcda&amp;dn=Balls.To.The.Wall.2011.BRRip.XviD.AC3-PRESTiGE&amp;tr=udp%3A%2F%2Ftracker.openbittorrent.com%3A80&amp;tr=udp%3A%2F%2Fopen.demonii.com%3A1337&amp;tr=udp%3A%2F%2Ftracker.coppersurfer.tk%3A6969&amp;tr=udp%3A%2F%2Fexodus.desync.com%3A6969","seeders":0,"leechers":3,"uploader":"crazy-torrent","files":2,"time":1328105022,"description":" &lt;a href=&quot;http://www.scenespeeds.com/&quot; rel=&quot;nofollow&quot; target=&quot;_NEW&quot;&gt;http://www.scenespeeds.com/&lt;/a&gt;\n\nDescription\n\nComplete name: Balls.To.The.Wall.2011.BRRip.XviD.AC3-PRESTiGE\nFormat: AVI\nFormat/Info: Audio Video Interleave\nFile size: 1.87 GiB\nDuration: 1h 28mn\nOverall bit rate: 3 018 Kbps\nLanguage: English\nSubs: N/A\nSource: 720p-FLHD Many THANKS\nEncoder: akosipalos iMDB: http://www.imdb.com/title/tt1626135/ Video\nID: 0\nFormat: MPEG-4 Visual\nFormat profile: Advanced Simple@L5\nFormat settings, BVOP: 2\nFormat settings, QPel: No\nFormat settings, GMC: No warppoints\nFormat settings, Matrix: Default (H.263)\nCodec ID: XVID\nCodec ID/Hint: XviD\nDuration: 1h 28mn\nBit rate: 2 562 Kbps\nWidth: 720 pixels\nHeight: 400 pixels\nDisplay aspect ratio: 16:9\nFrame rate: 23.976 fps\nColor space: YUV\nChroma subsampling: 4:2:0\nBit depth: 8 bits\nScan type: Progressive\nCompression mode: Lossy\nBits/(Pixel*Frame): 0.371\nStream size: 1.58 GiB (85%)\nWriting library: XviD 1.2.1 (UTC 2008-12-04) Audio\nID: 1\nFormat: AC-3\nFormat/Info: Audio Coding 3\nMode extension: CM (complete main)\nCodec ID: 2000\nDuration: 1h 28mn\nBit rate mode: Constant\nBit rate: 448 Kbps\nChannel(s): 6 channels\nChannel positions: Front: L C R, Side: L R, LFE\nSampling rate: 48.0 KHz\nBit depth: 16 bits\nCompression mode: Lossy\nStream size: 284 MiB (15%)\nAlignment: Aligned on interleaves\nInterleave, duration: 64 ms (1.53 video frames)\nInterleave, preload duration: 192 ms Plot:\n\nAn engaged guy is forced by his future father-in-law to take a side job moonlighting as an exotic\ndancer in order to pay extravagant wedding neither of them can afford Screens: Release Notes:\n    &lt;a href=&quot;\nhttp://www.scenespeeds.com/&quot; rel=&quot;nofollow&quot; target=&quot;_NEW&quot;&gt;\nhttp://www.scenespeeds.com/&lt;/a&gt;\t","torrent":{"xt":"urn:btih:2d3d229581290549f01d5f40dc5a7b29d62bbcda","amp;dn":"Balls.To.The.Wall.2011.BRRip.XviD.AC3-PRESTiGE","amp;tr":["udp%3A%2F%2Ftracker.openbittorrent.com%3A80","udp%3A%2F%2Fopen.demonii.com%3A1337","udp%3A%2F%2Ftracker.coppersurfer.tk%3A6969","udp%3A%2F%2Fexodus.desync.com%3A6969"],"infoHash":"2d3d229581290549f01d5f40dc5a7b29d62bbcda","infoHashBuffer":{"type":"Buffer","data":[45,61,34,149,129,41,5,73,240,29,95,64,220,90,123,41,214,43,188,218]},"announce":[],"urlList":[]}}